<?xml version="1.0" encoding="UTF-8"?>
<svg id="Camada_1" data-name="Camada 1" xmlns="http://www.w3.org/2000/svg" version="1.1" viewBox="0 0 500 500">
  <defs>
    <style>
      .cls-1 {
        fill: #009fe3;
      }

      .cls-1, .cls-2, .cls-3, .cls-4 {
        stroke-width: 0px;
      }

      .cls-2 {
        fill: #e52328;
      }

      .cls-3 {
        fill: #37ab4d;
      }

      .cls-4 {
        fill: #fff;
      }
    </style>
  </defs>
  <rect class="cls-4" width="500" height="500" rx="75.21" ry="75.21"/>
  <g>
    <circle class="cls-2" cx="337.37" cy="383.87" r="34.14" transform="translate(-172.62 350.99) rotate(-45)"/>
    <path class="cls-1" d="M104.38,375.35l-2.13,3.83c.61-1.34,1.31-2.63,2.13-3.83Z"/>
    <path class="cls-2" d="M126.91,133.42c2.56-8.16,6.64-15.83,12.17-22.49,8.77-10.72,20.48-18.31,33.52-22.01,2.67-.76,2.85-4.59.23-5.5s-5.48-1.43-8.43-1.43H63.8c-2.18,0-3.95,1.77-3.95,3.95v21.76c0,14.2,11.51,25.71,25.71,25.71h41.36Z"/>
    <path class="cls-3" d="M335.98,100.97h-144.98c-16.41,0-31.05,7.52-40.69,19.3-7.41,8.91-11.88,20.36-11.88,32.86h0v137.98c0,15.83-4.03,31.4-11.71,45.24l-.64,1.15-13.29,23.95-8.35,13.8-.06.12-2.13,3.83-.03.06c-1.46,3.24-2.25,6.86-2.25,10.63,0,9.35,4.91,17.55,12.29,22.19l2.54,1.43.18.09c3.8,2.1,7.89,3.1,11.92,3.1,8.64,0,17.06-4.59,21.55-12.67l31.2-55.21c3.94-6.98,11.34-11.3,19.36-11.3h119.23c1.28.09,2.57.15,3.85.15,2.95,0,5.83-.3,8.65-.76,26.1-3.62,47-24.48,49.98-51.34l13.3-119.71c3.84-34.6-23.24-64.86-58.05-64.86ZM343.19,186.45l-11.02,74.83c-3.8,14.39-16.82,24.41-31.7,24.41h-100.13c-8.06,0-14.6-6.54-14.6-14.6v-103.35c0-8.06,6.54-14.6,14.6-14.6h117.19c17.41,0,30.11,16.49,25.66,33.32Z"/>
  </g>
</svg>