<svg width="60" height="60" viewBox="0 0 60 60" fill="none" xmlns="http://www.w3.org/2000/svg">
<path d="M9.83337 52.1843L9.45557 52.8623C9.56425 52.6242 9.68846 52.3965 9.83337 52.1843Z" fill="white"/>
<path d="M49.1821 59.7198C52.5235 59.7198 55.2322 57.0111 55.2322 53.6697C55.2322 50.3283 52.5235 47.6196 49.1821 47.6196C45.8408 47.6196 43.1321 50.3283 43.1321 53.6697C43.1321 57.0111 45.8408 59.7198 49.1821 59.7198Z" fill="#E42328"/>
<path d="M7.8927 52.3965L7.51489 53.0745C7.62358 52.8364 7.74779 52.6087 7.8927 52.3965Z" fill="#009EE2"/>
<path d="M55.8427 12.6442V13.2704C55.8427 13.0582 55.8375 12.8512 55.822 12.6442H55.8427Z" fill="#009EE2"/>
<path d="M55.8428 36.3475V36.508H55.8376C55.8428 36.4562 55.8428 36.3993 55.8428 36.3475Z" fill="#009EE2"/>
<path d="M11.8879 9.52334C12.3434 8.07939 13.0628 6.71826 14.0461 5.53826C15.5987 3.63889 17.6741 2.29328 19.9875 1.636C20.4584 1.50144 20.4947 0.823457 20.0289 0.663019C19.5631 0.502581 19.0559 0.409424 18.5332 0.409424H0.698682C0.310525 0.409424 0 0.725124 0 1.10811V4.96379C0 7.47905 2.03911 9.51816 4.55437 9.51816H11.8828L11.8879 9.52334Z" fill="#E42328"/>
<path d="M48.9336 3.77349H23.2429C20.3343 3.77349 17.7414 5.10874 16.0335 7.19444C14.719 8.77294 13.9271 10.8017 13.9271 13.0168V37.4706C13.9271 40.2757 13.2129 43.0342 11.8518 45.4874L11.7379 45.6892L9.38309 49.9331L7.90292 52.3759L7.89257 52.3966L7.51477 53.0745V53.0849C7.25082 53.6594 7.11108 54.3011 7.11108 54.9687C7.11108 56.6249 7.98055 58.0792 9.28994 58.9021L9.7402 59.1556L9.77125 59.1712C10.4441 59.5438 11.1686 59.7198 11.8828 59.7198C13.4147 59.7198 14.9053 58.9072 15.7023 57.4736L21.2296 47.6869C21.9283 46.45 23.2377 45.684 24.6609 45.684H45.7922C46.0199 45.6996 46.2476 45.7099 46.4753 45.7099C46.998 45.7099 47.5104 45.6582 48.0073 45.5753C52.6341 44.9336 56.3345 41.2383 56.8676 36.477L59.2224 15.2629C59.9055 9.13005 55.1027 3.76831 48.9336 3.76831V3.77349ZM50.212 18.9219L48.2608 32.1814C47.588 34.7328 45.2798 36.508 42.6455 36.508H24.899C23.4706 36.508 22.3113 35.3487 22.3113 33.9203V15.6045C22.3113 14.1761 23.4706 13.0168 24.899 13.0168H45.668C48.7525 13.0168 51.0038 15.9409 50.212 18.9219Z" fill="#38AB4E"/>
</svg>
