<svg width="200" height="72" viewBox="0 0 200 72" fill="none" xmlns="http://www.w3.org/2000/svg">
<path d="M12.993 59.1414L12.5953 59.8551C12.7097 59.6045 12.8405 59.3648 12.993 59.1414Z" fill="white"/>
<path d="M54.4127 67.0734C57.9299 67.0734 60.7812 64.2222 60.7812 60.7049C60.7812 57.1877 57.9299 54.3365 54.4127 54.3365C50.8955 54.3365 48.0442 57.1877 48.0442 60.7049C48.0442 64.2222 50.8955 67.0734 54.4127 67.0734Z" fill="#E42328"/>
<path d="M10.9501 59.3648L10.5524 60.0785C10.6668 59.8279 10.7975 59.5882 10.9501 59.3648Z" fill="#009EE2"/>
<path d="M61.424 17.5202V18.1793C61.424 17.956 61.4186 17.7381 61.4022 17.5202H61.424Z" fill="#009EE2"/>
<path d="M61.424 42.4711V42.64H61.4186C61.424 42.5855 61.424 42.5256 61.424 42.4711Z" fill="#009EE2"/>
<path d="M15.1558 14.2351C15.6352 12.7152 16.3925 11.2824 17.4276 10.0403C19.0619 8.04097 21.2465 6.62454 23.6817 5.93266C24.1774 5.79102 24.2155 5.07736 23.7252 4.90848C23.2349 4.73959 22.701 4.64153 22.1508 4.64153H3.37767C2.96908 4.64153 2.64221 4.97385 2.64221 5.37699V9.43561C2.64221 12.0832 4.78865 14.2297 7.43628 14.2297H15.1504L15.1558 14.2351Z" fill="#E42328"/>
<path d="M54.1512 8.18261H27.1083C24.0466 8.18261 21.3172 9.58814 19.5195 11.7836C18.1357 13.4452 17.3022 15.5807 17.3022 17.9124V43.6533C17.3022 46.606 16.5504 49.5097 15.1176 52.092L14.9978 52.3044L12.519 56.7716L10.961 59.343L10.9501 59.3648L10.5524 60.0784V60.0893C10.2745 60.6941 10.1274 61.3696 10.1274 62.0723C10.1274 63.8156 11.0427 65.3465 12.421 66.2127L12.8949 66.4796L12.9276 66.496C13.6358 66.8882 14.3985 67.0734 15.1503 67.0734C16.7629 67.0734 18.3318 66.2181 19.1708 64.7091L24.9891 54.4073C25.7245 53.1053 27.1028 52.299 28.601 52.299H50.8444C51.0841 52.3153 51.3238 52.3262 51.5635 52.3262C52.1137 52.3262 52.6531 52.2717 53.176 52.1846C58.0464 51.509 61.9416 47.6193 62.5027 42.6073L64.9814 20.2767C65.7006 13.8211 60.645 8.17716 54.1512 8.17716V8.18261ZM55.4968 24.1284L53.443 38.0856C52.7348 40.7714 50.305 42.64 47.5321 42.64H28.8516C27.348 42.64 26.1277 41.4197 26.1277 39.9161V20.6363C26.1277 19.1327 27.348 17.9124 28.8516 17.9124H50.7136C53.9605 17.9124 56.3303 20.9904 55.4968 24.1284Z" fill="#37AA4D"/>
<path d="M112.655 25.049C112.655 26.7651 111.266 28.1597 109.545 28.1597C107.823 28.1597 106.434 26.7705 106.434 25.049C106.434 23.3275 107.823 21.9383 109.545 21.9383C111.266 21.9383 112.655 23.3275 112.655 25.049Z" fill="#E42328"/>
<path d="M123.861 19.9172L122.706 19.672C122.352 19.5958 122.102 19.4977 121.96 19.3779C121.818 19.2526 121.748 19.0946 121.748 18.8985C121.748 18.7187 121.802 18.5661 121.906 18.4299C122.009 18.2938 122.162 18.1902 122.363 18.114C122.565 18.0377 122.81 17.9996 123.093 17.9996C123.36 17.9996 123.616 18.0268 123.872 18.0813C124.123 18.1358 124.363 18.2229 124.586 18.3373C124.771 18.4245 124.924 18.4572 125.054 18.4299C125.185 18.4027 125.289 18.3428 125.376 18.2447C125.463 18.1467 125.512 18.0377 125.528 17.9124C125.545 17.7871 125.528 17.6618 125.479 17.5365C125.43 17.4112 125.332 17.3077 125.196 17.226C124.918 17.0516 124.591 16.9155 124.226 16.8228C123.856 16.7302 123.485 16.6866 123.104 16.6866C122.674 16.6866 122.282 16.7411 121.922 16.8501C121.562 16.959 121.257 17.117 120.996 17.3186C120.734 17.5256 120.538 17.7653 120.391 18.0432C120.249 18.321 120.179 18.6315 120.179 18.9747C120.179 19.5141 120.337 19.9499 120.653 20.2768C120.969 20.6091 121.453 20.8379 122.107 20.9741L123.262 21.2192C123.638 21.3009 123.9 21.399 124.047 21.5134C124.194 21.6278 124.27 21.7858 124.27 21.9819C124.27 22.2162 124.166 22.4068 123.954 22.5594C123.742 22.7119 123.387 22.7882 122.892 22.7882C122.565 22.7882 122.238 22.7501 121.906 22.6738C121.573 22.5975 121.268 22.4831 120.99 22.3251C120.827 22.2434 120.68 22.2162 120.544 22.2489C120.413 22.2815 120.304 22.3469 120.217 22.4559C120.13 22.5594 120.081 22.6847 120.064 22.8209C120.048 22.9571 120.064 23.0933 120.13 23.224C120.19 23.3548 120.298 23.4637 120.446 23.5454C120.658 23.6653 120.898 23.7688 121.165 23.8505C121.432 23.9322 121.715 23.9976 122.015 24.0412C122.309 24.0848 122.603 24.1066 122.886 24.1066C123.338 24.1066 123.742 24.0521 124.101 23.9486C124.461 23.8451 124.771 23.6925 125.033 23.491C125.289 23.2948 125.49 23.0551 125.626 22.7827C125.763 22.5049 125.833 22.1998 125.833 21.8566C125.833 21.3391 125.67 20.9196 125.343 20.6036C125.016 20.2876 124.521 20.0588 123.85 19.9117" fill="#3C3C3B"/>
<path d="M130.796 18.893C130.551 18.893 130.361 18.9584 130.23 19.0891C130.099 19.2199 130.028 19.4105 130.028 19.672V21.7749C130.028 22.1181 129.936 22.3905 129.745 22.5975C129.56 22.8045 129.32 22.908 129.026 22.908C128.759 22.908 128.568 22.8372 128.443 22.6901C128.323 22.543 128.258 22.3197 128.258 22.02V19.672C128.258 19.416 128.192 19.2199 128.056 19.0891C127.92 18.9584 127.729 18.893 127.484 18.893C127.239 18.893 127.048 18.9584 126.918 19.0891C126.787 19.2199 126.716 19.4105 126.716 19.672V21.9819C126.716 22.4504 126.781 22.8427 126.918 23.1641C127.048 23.4801 127.255 23.7198 127.533 23.8723C127.811 24.0303 128.165 24.1066 128.585 24.1066C128.966 24.1066 129.298 24.0085 129.576 23.8233C129.772 23.6871 129.936 23.5127 130.066 23.3057C130.066 23.5563 130.132 23.7525 130.263 23.8886C130.393 24.0248 130.579 24.0957 130.824 24.0957C131.319 24.0957 131.57 23.8342 131.57 23.3112V19.6829C131.57 19.4269 131.505 19.2308 131.368 19.1C131.232 18.9693 131.042 18.9039 130.791 18.9039" fill="#3C3C3B"/>
<path d="M137.018 19.1872C136.686 18.9747 136.304 18.8712 135.868 18.8712C135.465 18.8712 135.111 18.9693 134.801 19.1708C134.577 19.3179 134.408 19.4923 134.294 19.7047V19.6666C134.294 19.416 134.229 19.2199 134.098 19.0891C133.967 18.9584 133.776 18.8876 133.526 18.8876C133.286 18.8876 133.101 18.9529 132.97 19.0891C132.839 19.2253 132.769 19.416 132.769 19.6666V25.1308C132.769 25.3922 132.834 25.5884 132.97 25.7191C133.101 25.8499 133.297 25.9207 133.548 25.9207C133.798 25.9207 133.983 25.8553 134.114 25.7191C134.245 25.5884 134.316 25.3922 134.316 25.1308V23.3057C134.436 23.5019 134.599 23.6707 134.817 23.8124C135.122 24.0085 135.476 24.1011 135.868 24.1011C136.31 24.1011 136.696 23.9976 137.023 23.7851C137.35 23.5727 137.606 23.273 137.791 22.8754C137.977 22.4777 138.069 22.0146 138.069 21.4753C138.069 20.9359 137.977 20.4729 137.791 20.0861C137.606 19.6993 137.35 19.3997 137.018 19.1872ZM136.37 22.3033C136.277 22.5158 136.146 22.6792 135.983 22.7882C135.814 22.8971 135.623 22.9516 135.405 22.9516C135.073 22.9516 134.801 22.8318 134.599 22.5866C134.392 22.3469 134.294 21.9765 134.294 21.4753C134.294 21.143 134.343 20.8651 134.436 20.6527C134.528 20.4402 134.664 20.2822 134.828 20.1787C134.997 20.0752 135.187 20.0262 135.405 20.0262C135.732 20.0262 135.999 20.146 136.201 20.3803C136.408 20.6145 136.506 20.9795 136.506 21.4807C136.506 21.813 136.462 22.0909 136.37 22.3033Z" fill="#3C3C3B"/>
<path d="M143.588 21.7204C143.67 21.655 143.713 21.557 143.713 21.4317C143.713 21.0449 143.659 20.6908 143.55 20.3748C143.441 20.0588 143.283 19.7864 143.07 19.5685C142.858 19.3452 142.607 19.1763 142.313 19.0564C142.019 18.9366 141.692 18.8767 141.333 18.8767C140.837 18.8767 140.39 18.9856 139.998 19.209C139.606 19.4323 139.301 19.7374 139.083 20.1297C138.865 20.5219 138.756 20.9741 138.756 21.4916C138.756 22.0092 138.87 22.4831 139.099 22.8754C139.328 23.2676 139.655 23.5727 140.08 23.7851C140.504 23.9976 141.017 24.1066 141.605 24.1066C141.877 24.1066 142.161 24.0739 142.449 24.0085C142.738 23.9431 143 23.8451 143.228 23.7198C143.37 23.6435 143.474 23.5509 143.533 23.4365C143.593 23.3221 143.621 23.2077 143.61 23.0933C143.599 22.9789 143.561 22.8754 143.49 22.7882C143.419 22.701 143.326 22.6411 143.201 22.6193C143.076 22.5975 142.94 22.6193 142.782 22.6956C142.596 22.7827 142.4 22.8481 142.188 22.8917C141.975 22.9298 141.79 22.9516 141.627 22.9516C141.147 22.9516 140.788 22.8263 140.548 22.5812C140.368 22.4014 140.259 22.1453 140.21 21.813H143.218C143.375 21.813 143.495 21.7803 143.577 21.715M140.75 20.0697C140.924 19.9553 141.142 19.8954 141.392 19.8954C141.616 19.8954 141.807 19.9444 141.959 20.037C142.112 20.1351 142.231 20.2713 142.313 20.462C142.379 20.6145 142.417 20.8052 142.428 21.0177H140.221C140.243 20.8542 140.281 20.7017 140.341 20.5655C140.439 20.3476 140.575 20.1787 140.75 20.0643" fill="#3C3C3B"/>
<path d="M147.647 18.8712C147.205 18.8985 146.84 19.0238 146.562 19.2471C146.366 19.4051 146.219 19.6121 146.121 19.8573V19.6666C146.121 19.416 146.056 19.2199 145.925 19.0891C145.794 18.9584 145.609 18.8876 145.364 18.8876C145.119 18.8876 144.939 18.9529 144.808 19.0891C144.678 19.2199 144.607 19.416 144.607 19.6666V23.2948C144.607 23.5454 144.678 23.7416 144.814 23.8778C144.95 24.0139 145.146 24.0848 145.408 24.0848C145.669 24.0848 145.854 24.0139 145.985 23.8778C146.116 23.7416 146.187 23.5454 146.187 23.2948V21.3936C146.187 21.034 146.279 20.7562 146.47 20.5655C146.655 20.3748 146.944 20.2604 147.331 20.2277L147.565 20.2059C147.799 20.1787 147.963 20.1024 148.061 19.9826C148.159 19.8627 148.202 19.6938 148.186 19.4814C148.18 19.258 148.131 19.0946 148.039 18.9965C147.946 18.8985 147.815 18.8549 147.647 18.8712Z" fill="#3C3C3B"/>
<path d="M155.976 19.1055C155.726 18.9529 155.41 18.8767 155.023 18.8767C154.636 18.8767 154.266 18.9747 153.955 19.1763C153.694 19.3452 153.497 19.5631 153.35 19.8355C153.241 19.5358 153.078 19.307 152.86 19.1491C152.599 18.9638 152.277 18.8712 151.89 18.8712C151.504 18.8712 151.166 18.9693 150.877 19.1599C150.659 19.307 150.485 19.4868 150.354 19.6993V19.672C150.354 19.4214 150.289 19.2253 150.158 19.0946C150.027 18.9638 149.842 18.893 149.597 18.893C149.352 18.893 149.172 18.9584 149.041 19.0946C148.91 19.2253 148.84 19.4214 148.84 19.672V23.3003C148.84 23.5509 148.905 23.747 149.041 23.8832C149.172 24.0194 149.368 24.0902 149.619 24.0902C150.131 24.0902 150.387 23.8287 150.387 23.3057V21.2519C150.387 20.876 150.468 20.5873 150.632 20.3857C150.795 20.1787 151.024 20.0806 151.318 20.0806C151.569 20.0806 151.749 20.1569 151.852 20.3094C151.956 20.462 152.01 20.7071 152.01 21.0394V23.3057C152.01 23.5563 152.081 23.7525 152.217 23.8886C152.353 24.0248 152.544 24.0957 152.789 24.0957C153.034 24.0957 153.225 24.0248 153.356 23.8886C153.487 23.7525 153.557 23.5563 153.557 23.3057V21.2519C153.557 20.876 153.639 20.5873 153.803 20.3857C153.966 20.1787 154.195 20.0806 154.489 20.0806C154.74 20.0806 154.919 20.1569 155.023 20.3094C155.126 20.462 155.181 20.7071 155.181 21.0394V23.3057C155.181 23.5563 155.246 23.7525 155.382 23.8886C155.513 24.0248 155.709 24.0957 155.96 24.0957C156.21 24.0957 156.396 24.0248 156.526 23.8886C156.657 23.7525 156.728 23.5563 156.728 23.3057V20.985C156.728 20.5056 156.668 20.1133 156.543 19.8028C156.418 19.4923 156.232 19.2635 155.987 19.1055" fill="#3C3C3B"/>
<path d="M162.492 21.7204C162.574 21.655 162.617 21.557 162.617 21.4317C162.617 21.0449 162.563 20.6908 162.454 20.3748C162.345 20.0588 162.187 19.7864 161.974 19.5685C161.762 19.3452 161.511 19.1763 161.217 19.0564C160.923 18.9366 160.596 18.8767 160.236 18.8767C159.741 18.8767 159.294 18.9856 158.902 19.209C158.51 19.4323 158.204 19.7374 157.987 20.1297C157.769 20.5219 157.66 20.9741 157.66 21.4916C157.66 22.0092 157.774 22.4831 158.003 22.8754C158.232 23.2676 158.559 23.5727 158.983 23.7851C159.408 23.9976 159.921 24.1066 160.509 24.1066C160.781 24.1066 161.065 24.0739 161.353 24.0085C161.642 23.9431 161.904 23.8451 162.132 23.7198C162.274 23.6435 162.377 23.5509 162.437 23.4365C162.497 23.3221 162.525 23.2077 162.514 23.0933C162.503 22.9789 162.465 22.8754 162.394 22.7882C162.323 22.701 162.23 22.6411 162.105 22.6193C161.98 22.5975 161.844 22.6193 161.686 22.6956C161.5 22.7827 161.304 22.8481 161.092 22.8917C160.879 22.9298 160.694 22.9516 160.531 22.9516C160.051 22.9516 159.692 22.8263 159.452 22.5812C159.272 22.4014 159.163 22.1453 159.114 21.813H162.121C162.279 21.813 162.399 21.7803 162.481 21.715M159.648 20.0697C159.822 19.9553 160.04 19.8954 160.291 19.8954C160.514 19.8954 160.705 19.9444 160.858 20.037C161.01 20.1351 161.13 20.2713 161.212 20.462C161.277 20.6145 161.315 20.8052 161.326 21.0177H159.12C159.141 20.8542 159.18 20.7017 159.24 20.5655C159.338 20.3476 159.474 20.1787 159.648 20.0643" fill="#3C3C3B"/>
<path d="M166.545 18.8712C166.104 18.8985 165.739 19.0238 165.461 19.2471C165.265 19.4051 165.118 19.6121 165.02 19.8573V19.6666C165.02 19.416 164.954 19.2199 164.823 19.0891C164.693 18.9584 164.508 18.8876 164.262 18.8876C164.017 18.8876 163.837 18.9529 163.707 19.0891C163.576 19.2199 163.505 19.416 163.505 19.6666V23.2948C163.505 23.5454 163.576 23.7416 163.712 23.8778C163.848 24.0139 164.044 24.0848 164.306 24.0848C164.567 24.0848 164.753 24.0139 164.883 23.8778C165.014 23.7416 165.085 23.5454 165.085 23.2948V21.3936C165.085 21.034 165.178 20.7562 165.368 20.5655C165.553 20.3748 165.842 20.2604 166.229 20.2277L166.463 20.2059C166.698 20.1787 166.861 20.1024 166.959 19.9826C167.057 19.8627 167.101 19.6938 167.084 19.4814C167.079 19.258 167.03 19.0946 166.937 18.9965C166.845 18.8985 166.714 18.8549 166.545 18.8712Z" fill="#3C3C3B"/>
<path d="M169.291 20.4184C169.394 20.2985 169.525 20.2059 169.683 20.1406C169.841 20.0752 170.021 20.0425 170.222 20.0425C170.342 20.0425 170.478 20.0588 170.614 20.0915C170.756 20.1242 170.887 20.1787 171.018 20.255C171.154 20.3258 171.279 20.3421 171.388 20.3094C171.497 20.2768 171.59 20.2168 171.66 20.1242C171.731 20.0316 171.775 19.9281 171.786 19.8082C171.802 19.6884 171.786 19.574 171.731 19.4596C171.682 19.3452 171.584 19.258 171.448 19.1981C171.214 19.0728 170.979 18.9911 170.745 18.9366C170.506 18.8876 170.282 18.8603 170.07 18.8603C169.661 18.8603 169.291 18.9202 168.958 19.0401C168.626 19.16 168.343 19.3288 168.103 19.5576C167.869 19.781 167.689 20.0534 167.569 20.3748C167.444 20.6962 167.384 21.0558 167.384 21.4589C167.384 21.9983 167.493 22.4613 167.711 22.859C167.929 23.2567 168.239 23.5563 168.648 23.7742C169.051 23.9867 169.53 24.0957 170.075 24.0957C170.288 24.0957 170.506 24.0684 170.74 24.0194C170.969 23.9704 171.203 23.8832 171.437 23.7688C171.568 23.7089 171.655 23.6217 171.709 23.5073C171.759 23.3929 171.78 23.2785 171.769 23.1586C171.758 23.0388 171.72 22.9353 171.655 22.8427C171.59 22.7501 171.502 22.6901 171.393 22.652C171.285 22.6193 171.159 22.6357 171.023 22.701C170.887 22.7773 170.751 22.8263 170.614 22.859C170.478 22.8917 170.348 22.9026 170.228 22.9026C169.825 22.9026 169.514 22.7773 169.291 22.5213C169.067 22.2652 168.958 21.9111 168.958 21.4644C168.958 21.2356 168.986 21.0286 169.045 20.8488C169.105 20.6744 169.187 20.5219 169.291 20.4021" fill="#3C3C3B"/>
<path d="M176.013 19.1055C175.676 18.9529 175.245 18.8767 174.722 18.8767C174.482 18.8767 174.221 18.8985 173.943 18.9475C173.66 18.9965 173.36 19.0837 173.039 19.2144C172.881 19.2689 172.772 19.3506 172.701 19.465C172.63 19.5794 172.598 19.6938 172.598 19.8137C172.598 19.9335 172.63 20.0425 172.69 20.1406C172.75 20.2386 172.837 20.3094 172.957 20.3476C173.071 20.3857 173.208 20.3694 173.355 20.304C173.611 20.2005 173.85 20.1297 174.063 20.0861C174.275 20.0425 174.477 20.0207 174.662 20.0207C174.989 20.0207 175.223 20.0861 175.36 20.2114C175.496 20.3367 175.567 20.5491 175.567 20.8488V21.0231H175.196C174.488 21.0231 173.921 21.0667 173.491 21.1593C173.061 21.2519 172.75 21.4044 172.559 21.6169C172.369 21.8294 172.271 22.1236 172.271 22.4886C172.271 22.7936 172.352 23.0715 172.516 23.3166C172.679 23.5618 172.908 23.7579 173.202 23.8995C173.496 24.0412 173.823 24.112 174.194 24.112C174.461 24.112 174.695 24.0684 174.896 23.9758C175.103 23.8832 175.267 23.7525 175.403 23.589C175.485 23.4855 175.545 23.3711 175.594 23.2458V23.3057C175.594 23.5563 175.659 23.7525 175.784 23.8886C175.91 24.0248 176.09 24.0902 176.318 24.0902C176.547 24.0902 176.727 24.0194 176.852 23.8886C176.972 23.7525 177.037 23.5563 177.037 23.3057V21.0394C177.037 20.5437 176.95 20.1351 176.781 19.8191C176.613 19.5032 176.356 19.2689 176.019 19.1164M175.425 22.5539C175.338 22.7119 175.218 22.8372 175.06 22.9298C174.907 23.0224 174.733 23.066 174.531 23.066C174.281 23.066 174.085 23.0061 173.954 22.8808C173.823 22.7555 173.752 22.603 173.752 22.4123C173.752 22.2543 173.796 22.1345 173.889 22.0418C173.981 21.9547 174.134 21.8893 174.346 21.8512C174.559 21.813 174.842 21.7967 175.191 21.7967H175.55V22.0037C175.55 22.2053 175.507 22.3905 175.419 22.5485" fill="#3C3C3B"/>
<path d="M182.453 16.6975C182.202 16.6975 182.011 16.7629 181.881 16.8991C181.75 17.0299 181.684 17.226 181.684 17.4875V19.672C181.565 19.4705 181.401 19.3016 181.178 19.1654C180.873 18.9747 180.524 18.8767 180.132 18.8767C179.696 18.8767 179.315 18.9802 178.982 19.1926C178.65 19.4051 178.394 19.7047 178.209 20.0915C178.024 20.4783 177.931 20.9414 177.931 21.4807C177.931 22.0201 178.024 22.4831 178.209 22.8808C178.394 23.2785 178.65 23.5781 178.982 23.7906C179.315 24.0031 179.696 24.1066 180.132 24.1066C180.535 24.1066 180.889 24.0085 181.2 23.8069C181.418 23.6653 181.581 23.4855 181.695 23.2785V23.3057C181.695 23.5563 181.761 23.7525 181.897 23.8886C182.028 24.0248 182.218 24.0957 182.463 24.0957C182.709 24.0957 182.899 24.0248 183.03 23.8886C183.161 23.7525 183.232 23.5563 183.232 23.3057V17.4929C183.232 17.2314 183.161 17.0353 183.025 16.9046C182.888 16.7738 182.698 16.703 182.453 16.703M181.178 22.7882C181.014 22.8971 180.818 22.9516 180.595 22.9516C180.268 22.9516 180.001 22.8318 179.8 22.5866C179.598 22.3469 179.494 21.9765 179.494 21.4753C179.494 21.143 179.538 20.8651 179.631 20.6527C179.723 20.4402 179.854 20.2822 180.017 20.1787C180.186 20.0752 180.377 20.0262 180.595 20.0262C180.927 20.0262 181.2 20.146 181.401 20.3803C181.608 20.6145 181.706 20.9795 181.706 21.4807C181.706 21.813 181.657 22.0909 181.565 22.3033C181.472 22.5158 181.341 22.6792 181.178 22.7882Z" fill="#3C3C3B"/>
<path d="M188.233 19.1872C187.835 18.9747 187.367 18.8712 186.827 18.8712C186.424 18.8712 186.059 18.9311 185.732 19.051C185.405 19.1708 185.122 19.3452 184.888 19.574C184.654 19.8028 184.474 20.0752 184.354 20.3966C184.229 20.718 184.169 21.0776 184.169 21.4807C184.169 22.0201 184.278 22.4831 184.496 22.8808C184.713 23.2785 185.024 23.5781 185.422 23.7906C185.819 24.0031 186.288 24.1066 186.827 24.1066C187.23 24.1066 187.595 24.0466 187.928 23.9268C188.26 23.8069 188.538 23.6326 188.772 23.3983C189.006 23.1641 189.181 22.8917 189.306 22.5703C189.431 22.2489 189.497 21.8839 189.497 21.4753C189.497 20.9359 189.388 20.4729 189.164 20.0861C188.941 19.6993 188.63 19.3997 188.233 19.1872ZM187.797 22.3033C187.699 22.5158 187.574 22.6792 187.41 22.7882C187.247 22.8971 187.051 22.9516 186.827 22.9516C186.5 22.9516 186.233 22.8318 186.032 22.5866C185.825 22.3469 185.727 21.9765 185.727 21.4753C185.727 21.143 185.77 20.8651 185.863 20.6527C185.956 20.4402 186.086 20.2822 186.25 20.1787C186.419 20.0752 186.609 20.0262 186.827 20.0262C187.16 20.0262 187.432 20.146 187.634 20.3803C187.835 20.6145 187.939 20.9795 187.939 21.4807C187.939 21.813 187.89 22.0909 187.797 22.3033Z" fill="#3C3C3B"/>
<path d="M194.236 21.5352C194.002 21.3118 193.67 21.1647 193.223 21.0885L192.15 20.8924C191.986 20.8651 191.866 20.8106 191.785 20.7344C191.708 20.6581 191.665 20.56 191.665 20.4456C191.665 20.2985 191.73 20.1732 191.872 20.0752C192.008 19.9771 192.231 19.9281 192.537 19.9281C192.705 19.9281 192.885 19.9499 193.065 19.9935C193.25 20.037 193.452 20.1133 193.67 20.2114C193.806 20.2659 193.926 20.2822 194.035 20.255C194.138 20.2277 194.225 20.1678 194.296 20.0806C194.362 19.9935 194.405 19.8954 194.421 19.7864C194.438 19.6775 194.421 19.574 194.372 19.4705C194.323 19.367 194.236 19.2852 194.111 19.2253C193.871 19.1055 193.626 19.0129 193.365 18.9584C193.103 18.9039 192.825 18.8767 192.515 18.8767C192.084 18.8767 191.703 18.942 191.365 19.0782C191.027 19.209 190.766 19.3997 190.575 19.6503C190.385 19.9009 190.287 20.195 190.287 20.5328C190.287 20.9032 190.401 21.2029 190.63 21.4371C190.859 21.6714 191.185 21.8294 191.605 21.9002L192.678 22.0963C192.847 22.1236 192.978 22.1726 193.065 22.238C193.152 22.3088 193.196 22.4068 193.196 22.543C193.196 22.6901 193.13 22.8154 192.994 22.908C192.863 23.0007 192.651 23.0442 192.357 23.0442C192.133 23.0442 191.905 23.0224 191.67 22.9734C191.436 22.9244 191.185 22.8427 190.902 22.7283C190.771 22.6738 190.657 22.6629 190.548 22.6901C190.445 22.7228 190.357 22.7827 190.292 22.8699C190.227 22.9571 190.194 23.0551 190.183 23.1641C190.178 23.273 190.199 23.382 190.259 23.4855C190.319 23.589 190.412 23.6762 190.548 23.747C190.81 23.8778 191.093 23.9704 191.409 24.0248C191.725 24.0793 192.035 24.1066 192.335 24.1066C193.01 24.1066 193.55 23.9595 193.953 23.6598C194.356 23.3657 194.563 22.9571 194.563 22.4395C194.563 22.0582 194.449 21.7586 194.214 21.5352" fill="#3C3C3B"/>
<path d="M77.446 53.6882C77.3534 53.6174 77.2227 53.5847 77.0538 53.5847H75.1198L75.3541 52.1573H77.555C77.7511 52.1573 77.8982 52.1029 78.0017 51.9939C78.1052 51.8849 78.1543 51.7433 78.1543 51.5581C78.1543 51.4273 78.1107 51.3238 78.0181 51.253C77.9255 51.1822 77.7947 51.1495 77.6258 51.1495H74.842C74.635 51.1495 74.4715 51.204 74.3517 51.3075C74.2318 51.411 74.1501 51.569 74.1174 51.7705L73.3929 56.3467C73.3602 56.5755 73.3929 56.7553 73.4909 56.8806C73.589 57.0113 73.7524 57.0767 73.9703 57.0767C74.368 57.0767 74.6023 56.8642 74.6677 56.4448L74.9564 54.5816H76.983C77.1737 54.5816 77.3207 54.5271 77.4242 54.4182C77.5278 54.3092 77.5822 54.1621 77.5822 53.9878C77.5822 53.8571 77.5387 53.7535 77.446 53.6827" fill="#3C3C3B"/>
<path d="M81.1888 53.1053C80.9218 52.9309 80.5568 52.8492 80.0938 52.8492C79.8704 52.8492 79.6416 52.871 79.4019 52.9091C79.1622 52.9473 78.9279 53.0126 78.6882 53.1107C78.5411 53.1706 78.4322 53.2469 78.3668 53.3341C78.3014 53.4212 78.2633 53.5138 78.2633 53.6119C78.2633 53.71 78.2905 53.7917 78.345 53.868C78.4049 53.9388 78.4812 53.9878 78.5738 54.015C78.6664 54.0423 78.7808 54.0368 78.9061 53.9878C79.0805 53.9115 79.2548 53.8571 79.4182 53.8244C79.5817 53.7917 79.7505 53.7753 79.9194 53.7753C80.2027 53.7753 80.4043 53.8353 80.5241 53.9606C80.644 54.0804 80.6821 54.2547 80.644 54.4836L80.6276 54.5925H80.0611C79.5326 54.5925 79.1023 54.6361 78.7645 54.7233C78.4267 54.8104 78.1761 54.9412 78.0181 55.1264C77.8547 55.3116 77.7784 55.5459 77.7784 55.8346C77.7784 56.0634 77.8384 56.2704 77.9637 56.4666C78.089 56.6627 78.2524 56.8152 78.4649 56.9351C78.6719 57.0549 78.9061 57.1148 79.1567 57.1148C79.3474 57.1148 79.5217 57.0822 79.6906 57.0168C79.8595 56.9514 80.0066 56.8534 80.1428 56.7117C80.23 56.6245 80.3008 56.521 80.3607 56.4012C80.3226 56.63 80.3444 56.7989 80.437 56.9187C80.5241 57.0331 80.6603 57.0931 80.8456 57.0931C81.0308 57.0931 81.1888 57.0386 81.3032 56.9351C81.4176 56.8316 81.4938 56.6736 81.5211 56.472L81.788 54.7832C81.848 54.4236 81.8316 54.0968 81.739 53.808C81.6464 53.5193 81.4666 53.285 81.1997 53.1162M80.4806 55.4478C80.4588 55.6167 80.4043 55.7583 80.3171 55.8782C80.23 55.998 80.1264 56.0961 80.0011 56.1615C79.8759 56.2269 79.7342 56.2595 79.5708 56.2595C79.3964 56.2595 79.2548 56.216 79.1404 56.1233C79.026 56.0307 78.9715 55.9054 78.9715 55.7365C78.9715 55.6112 79.0096 55.5077 79.0805 55.4315C79.1513 55.3552 79.2711 55.3062 79.4291 55.2735C79.5871 55.2408 79.805 55.2299 80.0774 55.2299H80.5132L80.4806 55.4478Z" fill="#3C3C3B"/>
<path d="M85.9937 53.0181C85.901 52.9582 85.7866 52.9309 85.6504 52.9309H83.3133C83.1499 52.9309 83.0137 52.98 82.9102 53.078C82.8067 53.1761 82.7577 53.3123 82.7577 53.4866C82.7577 53.601 82.8012 53.6936 82.8884 53.7644C82.9756 53.8353 83.0954 53.8679 83.2589 53.8679H84.6535L82.5234 56.0689C82.4199 56.1724 82.3491 56.2813 82.3218 56.3903C82.2891 56.4992 82.2946 56.6027 82.3218 56.6954C82.3545 56.788 82.4144 56.8642 82.5071 56.9187C82.5942 56.9732 82.7086 57.0004 82.8503 57.0004H85.2691C85.4434 57.0004 85.5742 56.9514 85.6777 56.8533C85.7757 56.7553 85.8248 56.6191 85.8248 56.4557C85.8248 56.1996 85.6613 56.0743 85.3345 56.0743H83.8363L85.9501 53.8952C86.0536 53.7862 86.1244 53.6718 86.1625 53.552C86.2007 53.4376 86.2007 53.3286 86.1734 53.236C86.1462 53.1434 86.0863 53.0671 85.9937 53.0072" fill="#3C3C3B"/>
<path d="M90.1177 53.4921C89.9815 53.2959 89.7909 53.1379 89.5512 53.0235C89.3115 52.9091 89.0227 52.8492 88.6795 52.8492C88.2437 52.8492 87.8514 52.9527 87.5028 53.1543C87.1541 53.3613 86.8817 53.6391 86.6856 53.9933C86.484 54.3474 86.386 54.7559 86.386 55.2245C86.386 55.5949 86.4731 55.9218 86.642 56.2051C86.8109 56.4883 87.0561 56.7063 87.372 56.8642C87.688 57.0222 88.0585 57.0985 88.4834 57.0985C88.6959 57.0985 88.9192 57.0713 89.1644 57.0222C89.4095 56.9678 89.6274 56.8915 89.8181 56.788C89.9271 56.7281 90.0088 56.6518 90.0633 56.5592C90.1177 56.4666 90.1395 56.3739 90.1395 56.2868C90.1395 56.1942 90.1123 56.1125 90.0633 56.0416C90.0142 55.9708 89.9434 55.9218 89.8508 55.9054C89.7582 55.8836 89.6547 55.9054 89.5294 55.9654C89.3986 56.0307 89.2461 56.0798 89.0772 56.1124C88.9083 56.1451 88.7503 56.1615 88.6087 56.1615C88.2273 56.1615 87.9441 56.058 87.7588 55.851C87.6172 55.693 87.5464 55.4914 87.5518 55.2408H90.0905C90.1831 55.2408 90.2594 55.2245 90.3139 55.1863C90.3683 55.1482 90.4065 55.0665 90.4228 54.9412C90.45 54.6742 90.4391 54.4182 90.3956 54.1621C90.3465 53.9115 90.2539 53.6882 90.1177 53.4866M88.1347 53.8244C88.2818 53.7263 88.4616 53.6773 88.6686 53.6773C88.8756 53.6773 89.0445 53.7209 89.1644 53.8135C89.2842 53.9061 89.3714 54.0259 89.415 54.1785C89.4477 54.2983 89.4531 54.44 89.4477 54.5925H87.6444C87.6771 54.4509 87.7261 54.3201 87.7915 54.2003C87.8732 54.0477 87.9876 53.9224 88.1347 53.8244Z" fill="#3C3C3B"/>
<path d="M94.7483 53.029C94.5412 52.9091 94.2906 52.8438 93.991 52.8438C93.6532 52.8438 93.3591 52.9146 93.1085 53.0617C92.9015 53.1815 92.738 53.3504 92.6073 53.5629V53.5302C92.6509 53.3068 92.6236 53.1434 92.531 53.029C92.4384 52.9146 92.3022 52.8601 92.1115 52.8601C91.9099 52.8601 91.752 52.9091 91.6321 53.0126C91.5123 53.1161 91.4305 53.2741 91.3979 53.4812L90.9511 56.3304C90.913 56.5592 90.9402 56.7389 91.0329 56.8642C91.1255 56.995 91.2671 57.0604 91.4632 57.0604C91.8827 57.0604 92.1224 56.8533 92.1878 56.4393L92.4438 54.8268C92.4929 54.5108 92.6018 54.2656 92.7762 54.0859C92.9505 53.9061 93.1738 53.8135 93.4571 53.8135C93.6805 53.8135 93.8276 53.8788 93.9093 54.0096C93.991 54.1403 94.0074 54.3365 93.9638 54.6034L93.6914 56.3304C93.6587 56.5592 93.6914 56.7389 93.7785 56.8642C93.8712 56.995 94.0128 57.0604 94.2089 57.0604C94.4214 57.0604 94.5848 57.0113 94.7101 56.9078C94.83 56.8043 94.9062 56.6463 94.9335 56.4393L95.2331 54.5762C95.293 54.173 95.2821 53.8407 95.195 53.5901C95.1078 53.3341 94.9662 53.1488 94.7592 53.0235" fill="#3C3C3B"/>
<path d="M100.191 51.0732C99.9837 51.0732 99.8203 51.1222 99.7004 51.2203C99.5806 51.3184 99.4989 51.4709 99.4662 51.6779L99.1774 53.5574C99.0794 53.345 98.9377 53.1706 98.7416 53.0508C98.5128 52.9091 98.2459 52.8383 97.9408 52.8383C97.5268 52.8383 97.1618 52.9473 96.8512 53.1652C96.5407 53.3831 96.301 53.6773 96.1376 54.0477C95.9687 54.4236 95.887 54.8486 95.887 55.3225C95.887 55.6821 95.9469 55.9926 96.0722 56.2595C96.1975 56.521 96.3718 56.728 96.6061 56.8751C96.8349 57.0222 97.1018 57.0931 97.4069 57.0931C97.712 57.0931 97.9789 57.0222 98.2186 56.8751C98.4311 56.7498 98.6054 56.5864 98.7525 56.3848C98.7253 56.5864 98.7525 56.7498 98.8288 56.8751C98.916 57.0113 99.0521 57.0767 99.2483 57.0767C99.4553 57.0767 99.6187 57.0222 99.7386 56.9133C99.8584 56.8043 99.9347 56.6463 99.9619 56.4339L100.703 51.7869C100.736 51.5526 100.703 51.3783 100.621 51.253C100.539 51.1277 100.387 51.0678 100.191 51.0678M98.8342 55.4315C98.7525 55.6548 98.6327 55.8292 98.4747 55.9654C98.3221 56.0961 98.1315 56.1669 97.9081 56.1669C97.6684 56.1669 97.4832 56.0907 97.347 55.9327C97.2108 55.7801 97.1454 55.5568 97.1454 55.268C97.1454 54.9793 97.189 54.7342 97.2707 54.5053C97.3524 54.2765 97.4723 54.1077 97.6303 53.9769C97.7828 53.8516 97.9735 53.7862 98.1968 53.7862C98.4365 53.7862 98.6218 53.8625 98.758 54.015C98.8942 54.1676 98.9595 54.3855 98.9595 54.6742C98.9595 54.963 98.9159 55.2081 98.8342 55.4315Z" fill="#3C3C3B"/>
<path d="M104.375 53.0726C104.075 52.92 103.715 52.8438 103.296 52.8438C102.985 52.8438 102.691 52.8982 102.413 53.0017C102.136 53.1053 101.885 53.2632 101.667 53.4648C101.449 53.6664 101.275 53.917 101.149 54.2112C101.024 54.5053 100.964 54.8431 100.964 55.219C100.964 55.5949 101.04 55.9272 101.198 56.2051C101.356 56.4829 101.585 56.7063 101.885 56.8642C102.185 57.0168 102.544 57.0985 102.964 57.0985C103.274 57.0985 103.568 57.044 103.846 56.9405C104.124 56.837 104.375 56.679 104.592 56.4774C104.81 56.2704 104.985 56.0253 105.11 55.7311C105.235 55.4369 105.301 55.0992 105.301 54.7178C105.301 54.3365 105.219 54.0096 105.061 53.7317C104.903 53.4485 104.669 53.2306 104.369 53.078M103.917 55.4315C103.83 55.6548 103.71 55.8346 103.557 55.9654C103.405 56.0961 103.22 56.1615 102.996 56.1615C102.751 56.1615 102.56 56.0852 102.43 55.9272C102.294 55.7747 102.228 55.5513 102.228 55.2626C102.228 54.9739 102.272 54.7287 102.353 54.4999C102.435 54.2765 102.555 54.1022 102.713 53.9715C102.871 53.8462 103.056 53.7808 103.274 53.7808C103.514 53.7808 103.699 53.8571 103.841 54.0096C103.977 54.1621 104.048 54.38 104.048 54.6688C104.048 54.9575 104.004 55.2027 103.917 55.4315Z" fill="#3C3C3B"/>
<path d="M111.98 53.0562C111.751 52.9146 111.484 52.8438 111.179 52.8438C110.874 52.8438 110.607 52.9091 110.367 53.0453C110.16 53.1597 109.986 53.3232 109.839 53.5302C109.86 53.3286 109.833 53.1652 109.757 53.0508C109.67 52.9255 109.534 52.8601 109.338 52.8601C109.13 52.8601 108.967 52.9146 108.847 53.0181C108.727 53.1216 108.651 53.2796 108.624 53.492L107.932 57.8448C107.894 58.0737 107.921 58.248 108.014 58.3787C108.106 58.5095 108.253 58.5749 108.444 58.5749C108.657 58.5749 108.82 58.5258 108.934 58.4278C109.049 58.3297 109.125 58.1772 109.158 57.9701L109.414 56.3903C109.512 56.5973 109.653 56.7662 109.844 56.886C110.073 57.0277 110.34 57.0985 110.645 57.0985C111.064 57.0985 111.429 56.9895 111.74 56.7716C112.045 56.5537 112.285 56.2541 112.448 55.8782C112.617 55.5023 112.699 55.0774 112.699 54.6088C112.699 54.2493 112.639 53.9388 112.514 53.6718C112.388 53.4049 112.214 53.2033 111.98 53.0617M111.315 55.4315C111.233 55.6548 111.113 55.8346 110.956 55.9654C110.803 56.0961 110.612 56.1615 110.389 56.1615C110.149 56.1615 109.964 56.0852 109.828 55.9272C109.692 55.7747 109.626 55.5513 109.626 55.2626C109.626 54.9739 109.67 54.7287 109.752 54.4999C109.833 54.2765 109.953 54.1022 110.111 53.9715C110.264 53.8462 110.454 53.7808 110.678 53.7808C110.917 53.7808 111.103 53.8571 111.239 54.0096C111.375 54.1621 111.44 54.38 111.44 54.6688C111.44 54.9575 111.397 55.2027 111.315 55.4315Z" fill="#3C3C3B"/>
<path d="M116.572 53.1053C116.305 52.9309 115.94 52.8492 115.477 52.8492C115.254 52.8492 115.025 52.871 114.785 52.9091C114.546 52.9473 114.311 53.0126 114.072 53.1107C113.925 53.1706 113.816 53.2469 113.75 53.3341C113.685 53.4212 113.647 53.5138 113.647 53.6119C113.647 53.71 113.674 53.7917 113.728 53.868C113.788 53.9388 113.865 53.9878 113.957 54.015C114.05 54.0423 114.164 54.0368 114.29 53.9878C114.464 53.9115 114.638 53.8571 114.802 53.8244C114.965 53.7917 115.134 53.7753 115.303 53.7753C115.586 53.7753 115.788 53.8353 115.908 53.9606C116.027 54.0804 116.066 54.2547 116.027 54.4836L116.011 54.5925H115.444C114.916 54.5925 114.486 54.6361 114.148 54.7233C113.81 54.8104 113.56 54.9412 113.402 55.1264C113.238 55.3116 113.162 55.5459 113.162 55.8346C113.162 56.0634 113.222 56.2704 113.347 56.4666C113.472 56.6627 113.636 56.8152 113.848 56.9351C114.055 57.0549 114.29 57.1148 114.54 57.1148C114.731 57.1148 114.905 57.0822 115.074 57.0168C115.243 56.9514 115.39 56.8534 115.526 56.7117C115.613 56.6245 115.684 56.521 115.744 56.4012C115.706 56.63 115.728 56.7989 115.82 56.9187C115.908 57.0331 116.044 57.0931 116.229 57.0931C116.414 57.0931 116.572 57.0386 116.687 56.9351C116.801 56.8316 116.877 56.6736 116.905 56.472L117.171 54.7832C117.231 54.4236 117.215 54.0968 117.122 53.808C117.03 53.5193 116.85 53.285 116.583 53.1162M115.864 55.4478C115.842 55.6167 115.788 55.7583 115.701 55.8782C115.613 55.998 115.51 56.0961 115.385 56.1615C115.259 56.2269 115.118 56.2595 114.954 56.2595C114.78 56.2595 114.638 56.216 114.524 56.1233C114.409 56.0307 114.355 55.9054 114.355 55.7365C114.355 55.6112 114.393 55.5077 114.464 55.4315C114.535 55.3552 114.655 55.3062 114.813 55.2735C114.971 55.2408 115.188 55.2299 115.461 55.2299H115.897L115.864 55.4478Z" fill="#3C3C3B"/>
<path d="M120.8 52.8438C120.467 52.8601 120.173 52.9636 119.923 53.1488C119.754 53.2741 119.618 53.4376 119.514 53.6282L119.525 53.5574C119.558 53.3286 119.525 53.1597 119.443 53.0399C119.356 52.92 119.209 52.8601 119.013 52.8601C118.817 52.8601 118.664 52.9091 118.544 53.0072C118.424 53.1053 118.348 53.2578 118.316 53.4539L117.858 56.3685C117.82 56.5918 117.847 56.7607 117.934 56.886C118.027 57.0113 118.174 57.0713 118.381 57.0713C118.588 57.0713 118.757 57.0222 118.882 56.9242C119.007 56.8261 119.084 56.6736 119.111 56.4666L119.351 54.9521C119.4 54.6415 119.498 54.4073 119.639 54.2438C119.781 54.0804 120.021 53.9823 120.348 53.9497L120.62 53.9224C120.832 53.9006 120.985 53.8353 121.088 53.7317C121.192 53.6282 121.241 53.4648 121.241 53.2414C121.241 53.0944 121.208 52.9854 121.143 52.92C121.078 52.8547 120.958 52.8274 120.794 52.8329" fill="#3C3C3B"/>
<path d="M124.69 53.029C124.602 52.9636 124.477 52.9309 124.314 52.9309H123.6L123.693 52.348C123.725 52.1301 123.693 51.9612 123.6 51.8414C123.507 51.7215 123.349 51.6561 123.137 51.6561C122.941 51.6561 122.788 51.7052 122.679 51.8032C122.57 51.9013 122.494 52.0429 122.461 52.2391L122.347 52.9309H122.047C121.857 52.9309 121.71 52.98 121.595 53.0726C121.481 53.1652 121.426 53.3014 121.426 53.4703C121.426 53.5956 121.47 53.6936 121.557 53.7644C121.644 53.8353 121.769 53.8679 121.922 53.8679H122.205L121.955 55.4206C121.9 55.7474 121.922 56.0362 122.02 56.2868C122.118 56.5374 122.292 56.7389 122.538 56.8806C122.783 57.0222 123.104 57.0985 123.496 57.0985C123.573 57.0985 123.654 57.093 123.747 57.0822C123.834 57.0713 123.916 57.0549 123.987 57.0331C124.112 57.0059 124.216 56.946 124.292 56.8588C124.368 56.7716 124.406 56.6082 124.406 56.3794C124.406 56.2486 124.384 56.156 124.346 56.107C124.303 56.058 124.237 56.0362 124.15 56.0362C124.09 56.0362 124.03 56.0416 123.976 56.058C123.921 56.0743 123.845 56.0798 123.752 56.0798C123.562 56.0798 123.415 56.0253 123.311 55.9109C123.208 55.8019 123.175 55.6167 123.219 55.3552L123.458 53.8679H124.248C124.423 53.8679 124.564 53.8135 124.668 53.71C124.771 53.6064 124.82 53.4757 124.82 53.3177C124.82 53.1924 124.777 53.0944 124.69 53.029Z" fill="#3C3C3B"/>
<path d="M128.579 53.4921C128.443 53.2959 128.252 53.1379 128.013 53.0235C127.773 52.9091 127.484 52.8492 127.141 52.8492C126.705 52.8492 126.313 52.9527 125.964 53.1543C125.616 53.3613 125.343 53.6391 125.147 53.9933C124.945 54.3474 124.847 54.7559 124.847 55.2245C124.847 55.5949 124.935 55.9218 125.103 56.2051C125.278 56.4883 125.517 56.7063 125.833 56.8642C126.149 57.0222 126.52 57.0985 126.945 57.0985C127.157 57.0985 127.381 57.0713 127.626 57.0222C127.871 56.9678 128.089 56.8915 128.28 56.788C128.388 56.7281 128.47 56.6518 128.525 56.5592C128.579 56.4666 128.601 56.3739 128.601 56.2868C128.601 56.1942 128.574 56.1125 128.525 56.0416C128.476 55.9708 128.405 55.9218 128.312 55.9054C128.22 55.8836 128.116 55.9054 127.991 55.9654C127.86 56.0307 127.708 56.0798 127.539 56.1124C127.37 56.1451 127.212 56.1615 127.07 56.1615C126.689 56.1615 126.405 56.058 126.22 55.851C126.079 55.693 126.008 55.4914 126.013 55.2408H128.552C128.645 55.2408 128.721 55.2245 128.775 55.1863C128.83 55.1482 128.868 55.0665 128.884 54.9412C128.911 54.6742 128.901 54.4182 128.857 54.1621C128.808 53.9115 128.715 53.6882 128.579 53.4866M126.596 53.8244C126.743 53.7263 126.923 53.6773 127.13 53.6773C127.337 53.6773 127.506 53.7209 127.626 53.8135C127.746 53.9061 127.833 54.0259 127.876 54.1785C127.909 54.2983 127.915 54.44 127.909 54.5925H126.106C126.139 54.4509 126.188 54.3201 126.253 54.2003C126.335 54.0477 126.449 53.9224 126.596 53.8244Z" fill="#3C3C3B"/>
<path d="M136.021 51.0732C135.814 51.0732 135.65 51.1222 135.531 51.2203C135.411 51.3184 135.329 51.4709 135.296 51.6779L135.008 53.5574C134.91 53.345 134.768 53.1706 134.572 53.0508C134.343 52.9091 134.076 52.8383 133.771 52.8383C133.357 52.8383 132.992 52.9473 132.681 53.1652C132.371 53.3831 132.131 53.6773 131.968 54.0477C131.799 54.4236 131.717 54.8486 131.717 55.3225C131.717 55.6821 131.777 55.9926 131.902 56.2595C132.028 56.521 132.202 56.728 132.436 56.8751C132.665 57.0222 132.932 57.0931 133.237 57.0931C133.542 57.0931 133.809 57.0222 134.049 56.8751C134.261 56.7498 134.436 56.5864 134.583 56.3848C134.555 56.5864 134.583 56.7498 134.659 56.8751C134.746 57.0113 134.882 57.0767 135.078 57.0767C135.285 57.0767 135.449 57.0222 135.569 56.9133C135.689 56.8043 135.765 56.6463 135.792 56.4339L136.533 51.7869C136.566 51.5526 136.538 51.3783 136.451 51.253C136.364 51.1277 136.217 51.0678 136.021 51.0678M134.664 55.4315C134.583 55.6548 134.463 55.8292 134.305 55.9654C134.152 56.0961 133.962 56.1669 133.738 56.1669C133.499 56.1669 133.313 56.0907 133.177 55.9327C133.041 55.7801 132.976 55.5568 132.976 55.268C132.976 54.9793 133.019 54.7342 133.101 54.5053C133.183 54.2765 133.302 54.1077 133.46 53.9769C133.613 53.8516 133.804 53.7862 134.027 53.7862C134.267 53.7862 134.452 53.8625 134.588 54.015C134.724 54.1676 134.79 54.3855 134.79 54.6742C134.79 54.963 134.746 55.2081 134.664 55.4315Z" fill="#3C3C3B"/>
<path d="M140.21 53.0726C139.911 52.92 139.551 52.8438 139.132 52.8438C138.821 52.8438 138.527 52.8982 138.249 53.0017C137.971 53.1053 137.721 53.2632 137.503 53.4648C137.285 53.6664 137.11 53.917 136.985 54.2112C136.86 54.5053 136.8 54.8431 136.8 55.219C136.8 55.5949 136.876 55.9272 137.034 56.2051C137.192 56.4883 137.421 56.7063 137.721 56.8642C138.02 57.0168 138.38 57.0985 138.799 57.0985C139.11 57.0985 139.404 57.044 139.682 56.9405C139.96 56.837 140.21 56.679 140.428 56.4774C140.646 56.2704 140.82 56.0253 140.946 55.7311C141.071 55.4369 141.136 55.0992 141.136 54.7178C141.136 54.3365 141.055 54.0096 140.897 53.7317C140.733 53.4485 140.504 53.2306 140.205 53.078M139.747 55.4315C139.66 55.6548 139.54 55.8346 139.388 55.9654C139.235 56.0961 139.05 56.1615 138.827 56.1615C138.581 56.1615 138.391 56.0852 138.254 55.9272C138.118 55.7747 138.053 55.5513 138.053 55.2626C138.053 54.9739 138.097 54.7287 138.178 54.4999C138.26 54.2765 138.38 54.1022 138.538 53.9715C138.696 53.8462 138.881 53.7808 139.099 53.7808C139.339 53.7808 139.524 53.8571 139.665 54.0096C139.802 54.1621 139.872 54.38 139.872 54.6688C139.872 54.9575 139.829 55.2027 139.742 55.4315" fill="#3C3C3B"/>
<path d="M147.271 53.1053C147.107 53.0235 146.911 52.9582 146.699 52.9146C146.481 52.871 146.285 52.8492 146.099 52.8492C145.68 52.8492 145.326 52.9146 145.037 53.0399C144.748 53.1652 144.53 53.3395 144.383 53.552C144.236 53.7644 144.165 53.9987 144.165 54.2439C144.165 54.5271 144.253 54.7614 144.432 54.9466C144.612 55.1318 144.857 55.2517 145.179 55.3062L145.936 55.4478C146.072 55.4696 146.176 55.5077 146.241 55.5677C146.306 55.6276 146.339 55.7039 146.339 55.7965C146.339 55.9218 146.279 56.0307 146.159 56.1124C146.039 56.1942 145.86 56.2378 145.625 56.2378C145.446 56.2378 145.266 56.216 145.075 56.1778C144.885 56.1342 144.705 56.0743 144.525 55.9926C144.411 55.9436 144.302 55.9327 144.209 55.9545C144.116 55.9817 144.04 56.0253 143.991 56.1016C143.937 56.1724 143.909 56.2541 143.899 56.3522C143.888 56.4448 143.915 56.5374 143.964 56.6245C144.018 56.7117 144.106 56.7825 144.236 56.8425C144.421 56.9187 144.634 56.9841 144.874 57.0331C145.119 57.0822 145.369 57.1094 145.631 57.1094C146.181 57.1094 146.622 56.9895 146.955 56.7498C147.292 56.5101 147.456 56.1615 147.456 55.7148C147.456 55.4315 147.363 55.2027 147.184 55.0229C146.998 54.8431 146.731 54.7178 146.377 54.6524L145.631 54.5108C145.511 54.489 145.424 54.4509 145.369 54.3909C145.315 54.331 145.293 54.2656 145.293 54.1894C145.293 54.0532 145.353 53.9388 145.478 53.8462C145.604 53.759 145.789 53.7154 146.039 53.7154C146.192 53.7154 146.35 53.7318 146.508 53.7699C146.666 53.808 146.813 53.8571 146.944 53.9224C147.064 53.9715 147.173 53.9878 147.265 53.966C147.358 53.9442 147.434 53.9006 147.494 53.8353C147.554 53.7644 147.587 53.6882 147.592 53.5956C147.603 53.5084 147.581 53.4212 147.532 53.3286C147.483 53.2415 147.396 53.1706 147.276 53.1107" fill="#3C3C3B"/>
<path d="M151.825 53.4921C151.689 53.2959 151.498 53.1379 151.258 53.0235C151.019 52.9091 150.73 52.8492 150.387 52.8492C149.951 52.8492 149.559 52.9527 149.21 53.1543C148.861 53.3613 148.589 53.6391 148.393 53.9933C148.191 54.3474 148.093 54.7559 148.093 55.2245C148.093 55.5949 148.18 55.9218 148.349 56.2051C148.524 56.4883 148.763 56.7063 149.079 56.8642C149.395 57.0222 149.766 57.0985 150.191 57.0985C150.403 57.0985 150.626 57.0713 150.872 57.0222C151.117 56.9678 151.335 56.8915 151.525 56.788C151.634 56.7281 151.716 56.6518 151.771 56.5592C151.825 56.4666 151.847 56.3739 151.847 56.2868C151.847 56.1942 151.82 56.1125 151.771 56.0416C151.722 55.9708 151.651 55.9218 151.558 55.9054C151.465 55.8836 151.362 55.9054 151.237 55.9654C151.106 56.0307 150.953 56.0798 150.784 56.1124C150.616 56.1451 150.458 56.1615 150.316 56.1615C149.935 56.1615 149.651 56.058 149.466 55.851C149.324 55.693 149.254 55.4914 149.259 55.2408H151.798C151.89 55.2408 151.967 55.2245 152.021 55.1863C152.076 55.1482 152.114 55.0665 152.13 54.9412C152.157 54.6742 152.146 54.4182 152.103 54.1621C152.054 53.9115 151.961 53.6882 151.825 53.4866M149.842 53.8244C149.989 53.7263 150.169 53.6773 150.376 53.6773C150.583 53.6773 150.752 53.7209 150.877 53.8135C150.997 53.9061 151.084 54.0259 151.128 54.1785C151.16 54.2983 151.171 54.44 151.16 54.5925H149.357C149.39 54.4509 149.439 54.3201 149.504 54.2003C149.586 54.0477 149.7 53.9224 149.847 53.8244" fill="#3C3C3B"/>
<path d="M156.461 52.8601C156.265 52.8601 156.113 52.9091 156.004 53.0017C155.895 53.0944 155.818 53.2414 155.786 53.443L155.519 55.1046C155.47 55.4206 155.361 55.6657 155.192 55.8455C155.023 56.0253 154.805 56.1179 154.538 56.1179C154.326 56.1179 154.184 56.0525 154.108 55.9218C154.031 55.791 154.01 55.5949 154.048 55.3334L154.331 53.5465C154.358 53.3177 154.326 53.1488 154.233 53.029C154.14 52.9146 153.988 52.8547 153.775 52.8547C153.579 52.8547 153.427 52.9037 153.312 52.9963C153.198 53.0889 153.122 53.236 153.094 53.4376L152.789 55.3498C152.724 55.7474 152.735 56.0743 152.822 56.3358C152.909 56.5919 153.056 56.7825 153.263 56.9078C153.47 57.0331 153.715 57.0931 154.004 57.0931C154.326 57.0931 154.614 57.0168 154.865 56.8697C155.067 56.7498 155.235 56.5755 155.366 56.363L155.355 56.4284C155.328 56.6518 155.355 56.8152 155.453 56.9187C155.546 57.0222 155.688 57.0767 155.884 57.0767C156.276 57.0767 156.505 56.8806 156.565 56.4883L157.022 53.5465C157.055 53.3232 157.022 53.1543 156.93 53.0344C156.837 52.9146 156.679 52.8547 156.467 52.8547" fill="#3C3C3B"/>
<path d="M164.17 51.0732C163.963 51.0732 163.799 51.1222 163.679 51.2203C163.56 51.3184 163.478 51.4709 163.445 51.6779L163.156 53.5574C163.058 53.345 162.917 53.1706 162.721 53.0508C162.492 52.9091 162.225 52.8383 161.92 52.8383C161.506 52.8383 161.141 52.9473 160.83 53.1652C160.52 53.3831 160.28 53.6773 160.117 54.0477C159.948 54.4236 159.866 54.8486 159.866 55.3225C159.866 55.6821 159.926 55.9926 160.051 56.2595C160.176 56.521 160.351 56.728 160.585 56.8751C160.814 57.0222 161.081 57.0931 161.386 57.0931C161.691 57.0931 161.958 57.0222 162.198 56.8751C162.41 56.7498 162.584 56.5864 162.732 56.3848C162.704 56.5864 162.732 56.7498 162.808 56.8751C162.895 57.0113 163.031 57.0767 163.227 57.0767C163.434 57.0767 163.598 57.0222 163.718 56.9133C163.837 56.8043 163.914 56.6463 163.941 56.4339L164.682 51.7869C164.715 51.5526 164.687 51.3783 164.6 51.253C164.513 51.1277 164.366 51.0678 164.17 51.0678M162.813 55.4315C162.732 55.6548 162.612 55.8292 162.454 55.9654C162.301 56.0961 162.11 56.1669 161.887 56.1669C161.647 56.1669 161.462 56.0907 161.326 55.9327C161.19 55.7801 161.124 55.5568 161.124 55.268C161.124 54.9793 161.168 54.7342 161.25 54.5053C161.331 54.282 161.451 54.1077 161.609 53.9769C161.762 53.8516 161.952 53.7862 162.176 53.7862C162.416 53.7862 162.601 53.8625 162.737 54.015C162.873 54.1676 162.939 54.3855 162.939 54.6742C162.939 54.963 162.895 55.2081 162.813 55.4315Z" fill="#3C3C3B"/>
<path d="M166.431 50.9261C166.191 50.9261 166.006 50.9806 165.864 51.0896C165.728 51.1985 165.641 51.362 165.608 51.5744C165.586 51.7705 165.63 51.9176 165.739 52.0211C165.848 52.1246 166.011 52.1791 166.234 52.1791C166.474 52.1791 166.659 52.1247 166.801 52.0157C166.937 51.9067 167.024 51.7488 167.052 51.5363C167.084 51.3347 167.052 51.1876 166.937 51.0787C166.828 50.9752 166.659 50.9207 166.436 50.9207" fill="#3C3C3B"/>
<path d="M166.115 52.8601C165.902 52.8601 165.739 52.9091 165.613 53.0126C165.494 53.1162 165.417 53.2741 165.39 53.4812L164.932 56.3467C164.894 56.5755 164.922 56.7553 165.009 56.8806C165.101 57.0113 165.243 57.0767 165.439 57.0767C165.657 57.0767 165.82 57.0222 165.935 56.9187C166.049 56.8152 166.126 56.6572 166.158 56.4557L166.616 53.5901C166.649 53.3559 166.621 53.1761 166.534 53.0508C166.447 52.9255 166.305 52.8601 166.109 52.8601" fill="#3C3C3B"/>
<path d="M170.5 53.1053C170.233 52.9309 169.868 52.8492 169.405 52.8492C169.182 52.8492 168.953 52.871 168.713 52.9091C168.474 52.9473 168.239 53.0126 168 53.1107C167.853 53.1706 167.744 53.2469 167.678 53.3341C167.613 53.4212 167.575 53.5138 167.575 53.6119C167.575 53.71 167.602 53.7917 167.656 53.868C167.716 53.9388 167.793 53.9878 167.885 54.015C167.978 54.0423 168.092 54.0368 168.218 53.9878C168.392 53.9115 168.566 53.8571 168.73 53.8244C168.893 53.7917 169.062 53.7753 169.231 53.7753C169.514 53.7753 169.716 53.8353 169.836 53.9606C169.955 54.0804 169.994 54.2547 169.955 54.4836L169.939 54.5925H169.372C168.844 54.5925 168.414 54.6361 168.076 54.7233C167.738 54.8104 167.488 54.9412 167.33 55.1264C167.166 55.3116 167.09 55.5459 167.09 55.8346C167.09 56.0634 167.15 56.2704 167.275 56.4666C167.4 56.6627 167.564 56.8152 167.776 56.9351C167.983 57.0549 168.218 57.1148 168.468 57.1148C168.659 57.1148 168.833 57.0822 169.002 57.0168C169.165 56.9514 169.318 56.8534 169.454 56.7117C169.541 56.6245 169.612 56.521 169.672 56.4066C169.634 56.6354 169.656 56.8043 169.748 56.9187C169.836 57.0331 169.972 57.0931 170.157 57.0931C170.342 57.0931 170.5 57.0386 170.615 56.9351C170.729 56.8316 170.805 56.6736 170.832 56.472L171.099 54.7832C171.159 54.4236 171.143 54.0968 171.05 53.808C170.958 53.5193 170.778 53.285 170.511 53.1162M169.792 55.4478C169.77 55.6167 169.716 55.7583 169.629 55.8782C169.541 55.998 169.438 56.0961 169.313 56.1615C169.187 56.2269 169.046 56.2595 168.882 56.2595C168.713 56.2595 168.566 56.216 168.452 56.1233C168.337 56.0307 168.283 55.9054 168.283 55.7365C168.283 55.6112 168.321 55.5077 168.392 55.4315C168.463 55.3552 168.583 55.3062 168.741 55.2735C168.904 55.2408 169.116 55.2299 169.389 55.2299H169.825L169.792 55.4478Z" fill="#3C3C3B"/>
<path d="M177.446 53.1053C177.179 52.9309 176.814 52.8492 176.351 52.8492C176.128 52.8492 175.899 52.871 175.659 52.9091C175.42 52.9473 175.185 53.0126 174.946 53.1107C174.798 53.1706 174.69 53.2469 174.624 53.3341C174.559 53.4212 174.521 53.5138 174.521 53.6119C174.521 53.71 174.548 53.7917 174.602 53.868C174.662 53.9388 174.739 53.9878 174.831 54.015C174.924 54.0423 175.038 54.0368 175.163 53.9878C175.338 53.9115 175.512 53.8571 175.676 53.8244C175.839 53.7917 176.008 53.7753 176.177 53.7753C176.46 53.7753 176.662 53.8353 176.781 53.9606C176.901 54.0804 176.939 54.2547 176.901 54.4836L176.885 54.5925H176.318C175.79 54.5925 175.36 54.6361 175.022 54.7233C174.684 54.8104 174.433 54.9412 174.275 55.1264C174.112 55.3116 174.036 55.5459 174.036 55.8346C174.036 56.0634 174.096 56.2704 174.221 56.4666C174.346 56.6627 174.51 56.8152 174.722 56.9351C174.929 57.0549 175.163 57.1148 175.414 57.1148C175.605 57.1148 175.779 57.0822 175.948 57.0168C176.111 56.9514 176.264 56.8534 176.4 56.7117C176.487 56.6245 176.558 56.521 176.618 56.4066C176.58 56.6354 176.602 56.8043 176.694 56.9187C176.781 57.0331 176.918 57.0931 177.103 57.0931C177.288 57.0931 177.446 57.0386 177.561 56.9351C177.675 56.8316 177.751 56.6736 177.778 56.472L178.045 54.7832C178.105 54.4236 178.089 54.0968 177.996 53.808C177.904 53.5193 177.724 53.285 177.457 53.1162M176.738 55.4478C176.716 55.6167 176.662 55.7583 176.574 55.8782C176.487 55.998 176.384 56.0961 176.258 56.1615C176.133 56.2269 175.992 56.2595 175.828 56.2595C175.659 56.2595 175.512 56.216 175.398 56.1233C175.283 56.0307 175.229 55.9054 175.229 55.7365C175.229 55.6112 175.267 55.5077 175.338 55.4315C175.409 55.3552 175.528 55.3062 175.686 55.2735C175.85 55.2408 176.062 55.2299 176.335 55.2299H176.771L176.738 55.4478Z" fill="#3C3C3B"/>
<path d="M185.356 51.0732C185.149 51.0732 184.986 51.1222 184.866 51.2203C184.746 51.3184 184.664 51.4709 184.632 51.6779L184.343 53.5574C184.245 53.345 184.103 53.1706 183.907 53.0508C183.678 52.9091 183.411 52.8383 183.106 52.8383C182.692 52.8383 182.327 52.9473 182.017 53.1652C181.706 53.3831 181.467 53.6773 181.303 54.0477C181.134 54.4236 181.052 54.8486 181.052 55.3225C181.052 55.6821 181.112 55.9926 181.238 56.2595C181.363 56.521 181.537 56.728 181.772 56.8751C182 57.0222 182.267 57.0931 182.572 57.0931C182.878 57.0931 183.144 57.0222 183.384 56.8751C183.597 56.7498 183.771 56.5864 183.918 56.3848C183.891 56.5864 183.918 56.7498 183.994 56.8751C184.081 57.0113 184.218 57.0767 184.414 57.0767C184.621 57.0767 184.784 57.0222 184.904 56.9133C185.024 56.8043 185.1 56.6463 185.127 56.4339L185.868 51.7869C185.901 51.5526 185.874 51.3783 185.787 51.253C185.699 51.1277 185.552 51.0678 185.356 51.0678M184 55.4315C183.918 55.6548 183.798 55.8292 183.64 55.9654C183.488 56.0961 183.297 56.1669 183.074 56.1669C182.834 56.1669 182.649 56.0907 182.512 55.9327C182.376 55.7801 182.311 55.5568 182.311 55.268C182.311 54.9793 182.355 54.7342 182.436 54.5053C182.518 54.282 182.638 54.1077 182.796 53.9769C182.948 53.8516 183.139 53.7862 183.362 53.7862C183.602 53.7862 183.787 53.8625 183.923 54.015C184.06 54.1676 184.125 54.3855 184.125 54.6742C184.125 54.963 184.081 55.2081 184 55.4315Z" fill="#3C3C3B"/>
<path d="M187.301 52.8601C187.089 52.8601 186.925 52.9091 186.8 53.0126C186.68 53.1162 186.604 53.2741 186.577 53.4812L186.119 56.3467C186.081 56.5755 186.108 56.7553 186.195 56.8806C186.288 57.0113 186.43 57.0767 186.626 57.0767C186.844 57.0767 187.007 57.0222 187.121 56.9187C187.236 56.8152 187.312 56.6572 187.345 56.4557L187.802 53.5901C187.835 53.3559 187.808 53.1761 187.721 53.0508C187.633 52.9255 187.492 52.8601 187.296 52.8601" fill="#3C3C3B"/>
<path d="M187.617 50.9261C187.377 50.9261 187.192 50.9806 187.051 51.0896C186.914 51.1985 186.827 51.362 186.795 51.5744C186.773 51.7705 186.816 51.9176 186.925 52.0211C187.034 52.1246 187.198 52.1791 187.421 52.1791C187.661 52.1791 187.846 52.1247 187.988 52.0157C188.124 51.9067 188.211 51.7488 188.238 51.5363C188.271 51.3347 188.238 51.1876 188.124 51.0787C188.015 50.9752 187.846 50.9207 187.623 50.9207" fill="#3C3C3B"/>
<path d="M191.687 53.1053C191.42 52.9309 191.055 52.8492 190.592 52.8492C190.368 52.8492 190.14 52.871 189.9 52.9091C189.66 52.9473 189.426 53.0126 189.186 53.1107C189.039 53.1706 188.93 53.2469 188.865 53.3341C188.799 53.4212 188.761 53.5138 188.761 53.6119C188.761 53.71 188.788 53.7917 188.843 53.868C188.903 53.9388 188.979 53.9878 189.072 54.015C189.164 54.0423 189.279 54.0368 189.404 53.9878C189.578 53.9115 189.753 53.8571 189.916 53.8244C190.08 53.7917 190.248 53.7753 190.417 53.7753C190.701 53.7753 190.902 53.8353 191.022 53.9606C191.142 54.0804 191.18 54.2547 191.142 54.4836L191.126 54.5925H190.559C190.031 54.5925 189.6 54.6361 189.262 54.7233C188.925 54.8104 188.674 54.9412 188.516 55.1264C188.353 55.3116 188.276 55.5459 188.276 55.8346C188.276 56.0634 188.336 56.2704 188.462 56.4666C188.587 56.6627 188.75 56.8152 188.963 56.9351C189.17 57.0549 189.404 57.1148 189.655 57.1148C189.845 57.1148 190.02 57.0822 190.189 57.0168C190.352 56.9514 190.505 56.8534 190.641 56.7117C190.728 56.6245 190.799 56.521 190.859 56.4066C190.82 56.6354 190.842 56.8043 190.935 56.9187C191.022 57.0331 191.158 57.0931 191.343 57.0931C191.529 57.0931 191.687 57.0386 191.801 56.9351C191.916 56.8316 191.992 56.6736 192.019 56.472L192.286 54.7832C192.346 54.4236 192.33 54.0968 192.237 53.808C192.144 53.5193 191.965 53.285 191.698 53.1162M190.978 55.4478C190.957 55.6167 190.902 55.7583 190.815 55.8782C190.728 55.998 190.624 56.0961 190.499 56.1615C190.374 56.2269 190.232 56.2595 190.069 56.2595C189.9 56.2595 189.753 56.216 189.638 56.1233C189.524 56.0307 189.469 55.9054 189.469 55.7365C189.469 55.6112 189.508 55.5077 189.578 55.4315C189.649 55.3552 189.769 55.3062 189.927 55.2735C190.09 55.2408 190.303 55.2299 190.575 55.2299H191.011L190.978 55.4478Z" fill="#3C3C3B"/>
<path d="M194.111 55.8346C193.986 55.7039 193.811 55.6385 193.582 55.6385C193.354 55.6385 193.196 55.7039 193.065 55.8346C192.934 55.9654 192.869 56.1342 192.869 56.3358C192.869 56.5374 192.934 56.7172 193.065 56.8534C193.196 56.9841 193.37 57.0549 193.582 57.0549C193.811 57.0549 193.986 56.9895 194.111 56.8534C194.236 56.7226 194.296 56.5483 194.296 56.3358C194.296 56.1233 194.236 55.9654 194.111 55.8346Z" fill="#3C3C3B"/>
<path d="M76.4219 46.3936C75.474 46.3936 74.744 46.1375 74.2265 45.62C73.7089 45.1024 73.4529 44.3615 73.4529 43.3918V26.3293C73.4529 25.3596 73.7089 24.6187 74.2265 24.1011C74.744 23.5836 75.4849 23.3275 76.4546 23.3275H84.403C86.9907 23.3275 88.9846 23.9922 90.401 25.316C91.812 26.6398 92.5202 28.4648 92.5202 30.7965C92.5202 33.1281 91.812 34.9477 90.401 36.277C88.99 37.6008 86.9907 38.2654 84.403 38.2654H79.391V43.4027C79.391 44.3724 79.1349 45.1133 78.6337 45.6309C78.1271 46.1484 77.3916 46.4044 76.4219 46.4044M79.391 33.6947H83.3679C85.6941 33.6947 86.8599 32.725 86.8599 30.7856C86.8599 28.8462 85.6941 27.8764 83.3679 27.8764H79.391V33.6947Z" fill="#37AA4D"/>
<path d="M96.5569 46.3936C94.5957 46.3936 93.6151 45.4238 93.6151 43.4844V32.7849C93.6151 30.8673 94.5521 29.9085 96.4262 29.9085C97.3087 29.9085 97.9952 30.1536 98.48 30.6494C98.9649 31.1451 99.21 31.8588 99.21 32.7849V32.883C99.575 31.9569 100.169 31.2269 100.986 30.6875C101.803 30.1482 102.773 29.8703 103.895 29.8486C104.522 29.8268 104.99 29.9848 105.301 30.3171C105.611 30.6494 105.78 31.2704 105.802 32.1748C105.802 32.9484 105.638 33.564 105.317 34.0161C104.996 34.4683 104.38 34.7407 103.476 34.8224L102.729 34.8878C101.585 34.9967 100.757 35.3127 100.24 35.8411C99.7221 36.3696 99.4661 37.1486 99.4661 38.1837V43.4844C99.4661 45.4238 98.4964 46.3936 96.5569 46.3936Z" fill="#37AA4D"/>
<path d="M109.512 46.3936C108.586 46.3936 107.878 46.1212 107.393 45.5873C106.908 45.0479 106.668 44.2744 106.668 43.2611V33.0464C106.668 32.0331 106.908 31.2595 107.393 30.7202C107.878 30.1809 108.58 29.9139 109.512 29.9139C110.443 29.9139 111.157 30.1863 111.664 30.7202C112.17 31.2595 112.421 32.0331 112.421 33.0464V43.2611C112.421 44.2744 112.176 45.0479 111.68 45.5873C111.184 46.1266 110.465 46.3936 109.512 46.3936Z" fill="#37AA4D"/>
<path d="M117.629 46.3936C116.703 46.3936 115.995 46.1484 115.51 45.6526C115.025 45.1569 114.785 44.4378 114.785 43.4844V32.7849C114.785 30.8673 115.722 29.9085 117.596 29.9085C119.296 29.9085 120.228 30.7365 120.375 32.3981C120.914 31.581 121.628 30.949 122.527 30.5077C123.42 30.0665 124.417 29.8431 125.518 29.8431C127.413 29.8431 128.819 30.4042 129.734 31.521C130.649 32.6433 131.107 34.3648 131.107 36.691V43.479C131.107 44.4269 130.856 45.1514 130.366 45.6472C129.87 46.1429 129.157 46.3881 128.231 46.3881C127.304 46.3881 126.591 46.1429 126.095 45.6472C125.599 45.1514 125.354 44.4323 125.354 43.479V36.9198C125.354 35.9501 125.185 35.2582 124.853 34.8496C124.521 34.4411 124.03 34.234 123.382 34.234C122.521 34.234 121.829 34.5119 121.312 35.0567C120.794 35.6069 120.538 36.3423 120.538 37.2685V43.4735C120.538 45.4129 119.569 46.3827 117.629 46.3827" fill="#37AA4D"/>
<path d="M141.512 46.4589C139.725 46.4589 138.167 46.1266 136.844 45.4565C135.52 44.7864 134.49 43.8276 133.755 42.5801C133.025 41.3325 132.654 39.8453 132.654 38.1183C132.654 36.3914 133.019 34.915 133.755 33.6729C134.485 32.4363 135.514 31.4883 136.844 30.8292C138.167 30.17 139.725 29.8431 141.512 29.8431C142.139 29.8431 142.793 29.903 143.484 30.0229C144.176 30.1427 144.885 30.3606 145.62 30.6875C146.116 30.8836 146.47 31.1778 146.688 31.5755C146.9 31.9732 146.993 32.3981 146.96 32.8503C146.927 33.3025 146.797 33.711 146.573 34.0761C146.345 34.4411 146.034 34.6917 145.636 34.817C145.239 34.9477 144.792 34.8932 144.296 34.6535C143.588 34.3321 142.863 34.1687 142.128 34.1687C140.984 34.1687 140.101 34.5119 139.48 35.2037C138.854 35.8956 138.543 36.8653 138.543 38.1129C138.543 39.3604 138.854 40.3683 139.48 41.071C140.107 41.7738 140.989 42.1225 142.128 42.1225C142.471 42.1225 142.825 42.0843 143.196 42.0081C143.561 41.9318 143.926 41.8065 144.296 41.6376C144.814 41.3979 145.26 41.3543 145.636 41.4905C146.012 41.6322 146.317 41.8773 146.541 42.2314C146.764 42.5855 146.895 42.9887 146.927 43.4408C146.96 43.893 146.868 44.3179 146.65 44.7156C146.437 45.1133 146.067 45.4129 145.549 45.6036C144.819 45.925 144.116 46.1484 143.446 46.2683C142.776 46.3881 142.133 46.448 141.507 46.448" fill="#37AA4D"/>
<path d="M156.407 46.4589C154.467 46.4589 152.795 46.1212 151.384 45.4402C149.973 44.7592 148.889 43.7949 148.137 42.5474C147.38 41.2998 147.004 39.8235 147.004 38.1183C147.004 36.4132 147.363 35.0676 148.088 33.82C148.807 32.5725 149.798 31.5973 151.062 30.8945C152.321 30.1972 153.759 29.8431 155.377 29.8431C156.995 29.8431 158.357 30.1754 159.528 30.8455C160.705 31.5156 161.609 32.4689 162.241 33.7056C162.879 34.9423 163.195 36.3914 163.195 38.053C163.195 38.8919 162.699 39.3114 161.707 39.3114H152.495C152.691 40.3465 153.122 41.0874 153.786 41.5396C154.451 41.9917 155.382 42.2205 156.565 42.2205C157.017 42.2205 157.556 42.166 158.183 42.0571C158.809 41.9481 159.397 41.7793 159.959 41.5396C160.65 41.2781 161.228 41.2781 161.702 41.5232C162.176 41.7738 162.492 42.1497 162.655 42.6564C162.819 43.163 162.797 43.6805 162.59 44.209C162.383 44.7374 161.98 45.1406 161.38 45.4238C160.623 45.7888 159.822 46.0558 158.973 46.2138C158.123 46.3772 157.267 46.4535 156.401 46.4535M155.633 33.564C154.772 33.564 154.064 33.82 153.514 34.3375C152.964 34.8551 152.615 35.6069 152.462 36.5984H158.471C158.406 35.5851 158.134 34.8278 157.649 34.3212C157.164 33.8146 156.488 33.564 155.628 33.564" fill="#37AA4D"/>
<path d="M171.05 46.4589C170.081 46.4589 169.111 46.3827 168.141 46.2356C167.172 46.083 166.289 45.8379 165.494 45.4892C164.824 45.2332 164.388 44.8518 164.186 44.3561C163.979 43.8603 163.963 43.3646 164.121 42.8688C164.284 42.3731 164.578 41.9972 165.009 41.7357C165.439 41.4796 165.957 41.4578 166.561 41.6703C167.444 41.9917 168.25 42.226 168.986 42.3676C169.716 42.5093 170.418 42.5801 171.089 42.5801C171.884 42.5801 172.456 42.4657 172.799 42.2423C173.142 42.019 173.317 41.7193 173.317 41.3543C173.317 41.0329 173.202 40.7878 172.979 40.6298C172.756 40.4663 172.434 40.3465 172.026 40.2593L168.435 39.6764C167.101 39.4639 166.066 38.9791 165.336 38.2218C164.6 37.47 164.235 36.4894 164.235 35.28C164.235 34.1578 164.546 33.1935 165.172 32.3872C165.799 31.581 166.67 30.9545 167.793 30.5132C168.915 30.0719 170.195 29.8486 171.639 29.8486C172.608 29.8486 173.491 29.9248 174.286 30.0719C175.082 30.2245 175.861 30.4696 176.613 30.8128C177.196 31.0525 177.566 31.4175 177.729 31.9133C177.893 32.409 177.882 32.8993 177.697 33.3842C177.512 33.869 177.201 34.234 176.76 34.4846C176.318 34.7298 175.785 34.7352 175.158 34.501C174.45 34.2231 173.818 34.0161 173.268 33.8854C172.717 33.7546 172.205 33.6893 171.731 33.6893C170.849 33.6893 170.222 33.8146 169.857 34.0597C169.492 34.3049 169.307 34.6045 169.307 34.9477C169.307 35.5306 169.705 35.8847 170.5 36.0155L174.09 36.6311C175.469 36.8435 176.531 37.3175 177.272 38.0366C178.013 38.7612 178.389 39.7309 178.389 40.9621C178.389 42.7054 177.719 44.0619 176.384 45.0207C175.049 45.9795 173.268 46.4589 171.05 46.4589Z" fill="#37AA4D"/>
<path d="M185.302 46.4589C184.076 46.4589 182.992 46.2301 182.055 45.778C181.118 45.3258 180.382 44.7047 179.86 43.9203C179.331 43.1358 179.07 42.2369 179.07 41.2236C179.07 40.0795 179.369 39.1698 179.974 38.4942C180.579 37.8133 181.548 37.3284 182.883 37.0397C184.218 36.7509 185.994 36.6038 188.216 36.6038H189.442V36.1517C189.442 35.3781 189.241 34.8279 188.843 34.501C188.445 34.1796 187.759 34.0161 186.789 34.0161C186.25 34.0161 185.661 34.0761 185.029 34.1959C184.392 34.3158 183.678 34.5228 182.878 34.8279C182.164 35.0839 181.576 35.0785 181.102 34.7952C180.628 34.5173 180.323 34.1087 180.181 33.5858C180.039 33.0573 180.094 32.5289 180.344 32.0004C180.59 31.472 181.069 31.0798 181.783 30.8183C182.818 30.4533 183.771 30.1972 184.643 30.061C185.514 29.9194 186.321 29.8486 187.051 29.8486C189.698 29.8486 191.665 30.4206 192.951 31.5592C194.231 32.7032 194.874 34.501 194.874 36.9579V43.4844C194.874 45.4238 193.991 46.3936 192.221 46.3936C190.45 46.3936 189.644 45.5328 189.54 43.8058C189.241 44.623 188.723 45.2713 187.988 45.7453C187.258 46.2192 186.359 46.4589 185.307 46.4589M186.593 42.7108C187.388 42.7108 188.064 42.4548 188.614 41.9372C189.164 41.4197 189.437 40.7442 189.437 39.8998V39.3168H188.211C186.942 39.3168 186.01 39.453 185.416 39.72C184.822 39.9924 184.528 40.4173 184.528 40.9948C184.528 41.4905 184.708 41.8991 185.062 42.2205C185.416 42.542 185.928 42.7054 186.598 42.7054" fill="#37AA4D"/>
</svg>
